<svg width="800" height="400" viewBox="0 0 800 400" xmlns="http://www.w3.org/2000/svg">
  <!-- Background gradient -->
  <defs>
    <linearGradient id="bgGradient" x1="0%" y1="0%" x2="100%" y2="100%">
      <stop offset="0%" style="stop-color:#dc2626;stop-opacity:1" />
      <stop offset="100%" style="stop-color:#7f1d1d;stop-opacity:1" />
    </linearGradient>
    <linearGradient id="brokerGradient" x1="0%" y1="0%" x2="100%" y2="100%">
      <stop offset="0%" style="stop-color:#3b82f6;stop-opacity:1" />
      <stop offset="100%" style="stop-color:#1e40af;stop-opacity:1" />
    </linearGradient>
  </defs>
  
  <!-- Background -->
  <rect width="800" height="400" fill="url(#bgGradient)"/>
  
  <!-- Stock chart background -->
  <g stroke="#fca5a5" stroke-width="2" fill="none" opacity="0.3">
    <path d="M50 300 L100 250 L150 220 L200 240 L250 180 L300 160 L350 200 L400 140 L450 120 L500 160 L550 100 L600 140 L650 90 L700 120 L750 80"/>
    <path d="M50 320 L100 280 L150 260 L200 270 L250 230 L300 210 L350 240 L400 190 L450 170 L500 200 L550 150 L600 180 L650 140 L700 160 L750 130"/>
  </g>
  
  <!-- Broker comparison chart -->
  <g transform="translate(100, 120)">
    <rect x="0" y="0" width="120" height="150" rx="10" fill="url(#brokerGradient)" opacity="0.8"/>
    <text x="60" y="25" text-anchor="middle" font-family="Arial, sans-serif" font-size="14" font-weight="bold" fill="white">Broker A</text>
    <text x="60" y="50" text-anchor="middle" font-family="Arial, sans-serif" font-size="12" fill="#bfdbfe">Brokerage</text>
    <text x="60" y="70" text-anchor="middle" font-family="Arial, sans-serif" font-size="16" font-weight="bold" fill="#fbbf24">₹20</text>
    <text x="60" y="95" text-anchor="middle" font-family="Arial, sans-serif" font-size="12" fill="#bfdbfe">Features</text>
    <text x="60" y="115" text-anchor="middle" font-family="Arial, sans-serif" font-size="10" fill="#bfdbfe">✓ Free AMC</text>
    <text x="60" y="130" text-anchor="middle" font-family="Arial, sans-serif" font-size="10" fill="#bfdbfe">✓ Research</text>
    <text x="60" y="145" text-anchor="middle" font-family="Arial, sans-serif" font-size="10" fill="#bfdbfe">✓ Mobile App</text>
  </g>
  
  <g transform="translate(270, 120)">
    <rect x="0" y="0" width="120" height="150" rx="10" fill="#10b981" opacity="0.8"/>
    <text x="60" y="25" text-anchor="middle" font-family="Arial, sans-serif" font-size="14" font-weight="bold" fill="white">Broker B</text>
    <text x="60" y="50" text-anchor="middle" font-family="Arial, sans-serif" font-size="12" fill="#d1fae5">Brokerage</text>
    <text x="60" y="70" text-anchor="middle" font-family="Arial, sans-serif" font-size="16" font-weight="bold" fill="#fbbf24">₹10</text>
    <text x="60" y="95" text-anchor="middle" font-family="Arial, sans-serif" font-size="12" fill="#d1fae5">Features</text>
    <text x="60" y="115" text-anchor="middle" font-family="Arial, sans-serif" font-size="10" fill="#d1fae5">✓ Low Cost</text>
    <text x="60" y="130" text-anchor="middle" font-family="Arial, sans-serif" font-size="10" fill="#d1fae5">✓ Fast Execution</text>
    <text x="60" y="145" text-anchor="middle" font-family="Arial, sans-serif" font-size="10" fill="#d1fae5">✓ Online</text>
  </g>
  
  <g transform="translate(440, 120)">
    <rect x="0" y="0" width="120" height="150" rx="10" fill="#f59e0b" opacity="0.8"/>
    <text x="60" y="25" text-anchor="middle" font-family="Arial, sans-serif" font-size="14" font-weight="bold" fill="white">Broker C</text>
    <text x="60" y="50" text-anchor="middle" font-family="Arial, sans-serif" font-size="12" fill="#fef3c7">Brokerage</text>
    <text x="60" y="70" text-anchor="middle" font-family="Arial, sans-serif" font-size="16" font-weight="bold" fill="white">₹0</text>
    <text x="60" y="95" text-anchor="middle" font-family="Arial, sans-serif" font-size="12" fill="#fef3c7">Features</text>
    <text x="60" y="115" text-anchor="middle" font-family="Arial, sans-serif" font-size="10" fill="#fef3c7">✓ Zero Fee</text>
    <text x="60" y="130" text-anchor="middle" font-family="Arial, sans-serif" font-size="10" fill="#fef3c7">✓ Basic Plan</text>
    <text x="60" y="145" text-anchor="middle" font-family="Arial, sans-serif" font-size="10" fill="#fef3c7">✓ Simple</text>
  </g>
  
  <!-- Selection arrow -->
  <g transform="translate(580, 180)">
    <path d="M0 0 L40 0" stroke="#fbbf24" stroke-width="4" fill="none"/>
    <path d="M35 -8 L40 0 L35 8" stroke="#fbbf24" stroke-width="4" fill="none"/>
    <text x="50" y="5" font-family="Arial, sans-serif" font-size="14" font-weight="bold" fill="#fbbf24">BEST</text>
  </g>
  
  <!-- Trading icons -->
  <g transform="translate(600, 60)">
    <circle cx="30" cy="30" r="25" fill="#fbbf24" opacity="0.3"/>
    <text x="30" y="40" text-anchor="middle" font-family="Arial, sans-serif" font-size="20" font-weight="bold" fill="#fbbf24">📊</text>
  </g>
  
  <g transform="translate(680, 100)">
    <circle cx="25" cy="25" r="20" fill="#10b981" opacity="0.3"/>
    <text x="25" y="35" text-anchor="middle" font-family="Arial, sans-serif" font-size="18" font-weight="bold" fill="#10b981">📈</text>
  </g>
  
  <!-- Title -->
  <text x="400" y="320" text-anchor="middle" font-family="Arial, sans-serif" font-size="36" font-weight="bold" fill="white">Discount Brokers</text>
  <text x="400" y="350" text-anchor="middle" font-family="Arial, sans-serif" font-size="18" fill="#fca5a5">Choosing the Right Partner</text>
  
  <!-- Decorative elements -->
  <circle cx="50" cy="50" r="15" fill="#3b82f6" opacity="0.4"/>
  <circle cx="750" cy="350" r="12" fill="#fbbf24" opacity="0.5"/>
</svg> 